<svg width="143" height="15" viewBox="0 0 143 15" fill="none" xmlns="http://www.w3.org/2000/svg">
<path d="M4.92 10.8604H10.6V14.4004H1.49012e-08V11.0604L5.6 3.76039H1.49012e-08V0.240391H10.6V3.58039L4.92 10.8604ZM18.8977 14.5404C17.5643 14.5404 16.3377 14.2271 15.2177 13.6004C14.111 12.9737 13.231 12.1071 12.5777 11.0004C11.9243 9.89372 11.5977 8.64706 11.5977 7.26039C11.5977 5.87372 11.9243 4.62706 12.5777 3.52039C13.231 2.41372 14.111 1.55372 15.2177 0.94039C16.3377 0.313723 17.5643 0.000390053 18.8977 0.000390053C20.231 0.000390053 21.451 0.313723 22.5577 0.94039C23.6643 1.55372 24.5377 2.41372 25.1777 3.52039C25.831 4.62706 26.1577 5.87372 26.1577 7.26039C26.1577 8.64706 25.831 9.89372 25.1777 11.0004C24.5377 12.1071 23.6577 12.9737 22.5377 13.6004C21.431 14.2271 20.2177 14.5404 18.8977 14.5404ZM18.8977 10.4004C19.7777 10.4004 20.4577 10.1204 20.9377 9.56039C21.4177 8.98706 21.6577 8.22039 21.6577 7.26039C21.6577 6.28706 21.4177 5.52039 20.9377 4.96039C20.4577 4.38706 19.7777 4.10039 18.8977 4.10039C18.0043 4.10039 17.3177 4.38706 16.8377 4.96039C16.3577 5.52039 16.1177 6.28706 16.1177 7.26039C16.1177 8.22039 16.3577 8.98706 16.8377 9.56039C17.3177 10.1204 18.0043 10.4004 18.8977 10.4004ZM34.2794 14.4004L31.6194 9.32039H31.5994V14.4004H27.1594V0.240391H33.7594C34.906 0.240391 35.886 0.447057 36.6994 0.86039C37.5127 1.26039 38.1194 1.81372 38.5194 2.52039C38.9327 3.21372 39.1394 4.00039 39.1394 4.88039C39.1394 5.82706 38.8727 6.66706 38.3394 7.40039C37.8194 8.13372 37.066 8.66039 36.0794 8.98039L39.1594 14.4004H34.2794ZM31.5994 6.36039H33.3594C33.786 6.36039 34.106 6.26706 34.3194 6.08039C34.5327 5.88039 34.6394 5.57372 34.6394 5.16039C34.6394 4.78706 34.526 4.49372 34.2994 4.28039C34.086 4.06706 33.7727 3.96039 33.3594 3.96039H31.5994V6.36039ZM44.3978 0.240391V14.4004H39.9578V0.240391H44.3978ZM45.4031 7.30039C45.4031 5.90039 45.6831 4.65372 46.2431 3.56039C46.8165 2.46706 47.6298 1.62039 48.6831 1.02039C49.7365 0.407057 50.9765 0.10039 52.4031 0.10039C53.6298 0.10039 54.7231 0.333723 55.6831 0.80039C56.6565 1.25372 57.4431 1.90039 58.0431 2.74039C58.6565 3.58039 59.0631 4.56039 59.2631 5.68039H54.5831C54.3698 5.21372 54.0631 4.85372 53.6631 4.60039C53.2765 4.33372 52.8298 4.20039 52.3231 4.20039C51.5765 4.20039 50.9831 4.48039 50.5431 5.04039C50.1165 5.60039 49.9031 6.35372 49.9031 7.30039C49.9031 8.24706 50.1165 9.00039 50.5431 9.56039C50.9831 10.1204 51.5765 10.4004 52.3231 10.4004C52.8298 10.4004 53.2765 10.2737 53.6631 10.0204C54.0631 9.75372 54.3698 9.38706 54.5831 8.92039H59.2631C59.0631 10.0404 58.6565 11.0204 58.0431 11.8604C57.4431 12.7004 56.6565 13.3537 55.6831 13.8204C54.7231 14.2737 53.6298 14.5004 52.4031 14.5004C50.9765 14.5004 49.7365 14.2004 48.6831 13.6004C47.6298 12.9871 46.8165 12.1337 46.2431 11.0404C45.6831 9.94706 45.4031 8.70039 45.4031 7.30039ZM68.9817 5.74039V9.40039H59.6617V5.74039H68.9817ZM76.7252 14.5404C75.0318 14.5404 73.6318 14.1471 72.5252 13.3604C71.4318 12.5604 70.8385 11.3937 70.7452 9.86039H75.4652C75.5318 10.6737 75.8918 11.0804 76.5452 11.0804C76.7852 11.0804 76.9852 11.0271 77.1452 10.9204C77.3185 10.8004 77.4052 10.6204 77.4052 10.3804C77.4052 10.0471 77.2252 9.78039 76.8652 9.58039C76.5052 9.36706 75.9452 9.12706 75.1852 8.86039C74.2785 8.54039 73.5252 8.22706 72.9252 7.92039C72.3385 7.61372 71.8318 7.16706 71.4052 6.58039C70.9785 5.99372 70.7718 5.24039 70.7852 4.32039C70.7852 3.40039 71.0185 2.62039 71.4852 1.98039C71.9652 1.32706 72.6118 0.833723 73.4252 0.50039C74.2518 0.167057 75.1785 0.000390053 76.2052 0.000390053C77.9385 0.000390053 79.3118 0.40039 80.3252 1.20039C81.3518 2.00039 81.8918 3.12706 81.9452 4.58039H77.1652C77.1518 4.18039 77.0518 3.89372 76.8652 3.72039C76.6785 3.54706 76.4518 3.46039 76.1852 3.46039C75.9985 3.46039 75.8452 3.52706 75.7252 3.66039C75.6052 3.78039 75.5452 3.95372 75.5452 4.18039C75.5452 4.50039 75.7185 4.76706 76.0652 4.98039C76.4252 5.18039 76.9918 5.42706 77.7652 5.72039C78.6585 6.05372 79.3918 6.37372 79.9652 6.68039C80.5518 6.98706 81.0585 7.41372 81.4852 7.96039C81.9118 8.50706 82.1252 9.19372 82.1252 10.0204C82.1252 10.8871 81.9118 11.6671 81.4852 12.3604C81.0585 13.0404 80.4385 13.5737 79.6252 13.9604C78.8118 14.3471 77.8452 14.5404 76.7252 14.5404ZM94.2052 0.240391V3.76039H90.4452V14.4004H86.0052V3.76039H82.2852V0.240391H94.2052ZM99.1494 0.240391V8.22039C99.1494 8.87372 99.2894 9.39372 99.5694 9.78039C99.8627 10.1537 100.329 10.3404 100.969 10.3404C101.609 10.3404 102.083 10.1537 102.389 9.78039C102.696 9.39372 102.849 8.87372 102.849 8.22039V0.240391H107.269V8.22039C107.269 9.56706 106.989 10.7204 106.429 11.6804C105.869 12.6271 105.103 13.3404 104.129 13.8204C103.156 14.3004 102.069 14.5404 100.869 14.5404C99.6694 14.5404 98.6027 14.3004 97.6694 13.8204C96.7494 13.3404 96.0294 12.6271 95.5094 11.6804C94.9894 10.7337 94.7294 9.58039 94.7294 8.22039V0.240391H99.1494ZM114.484 0.240391C115.964 0.240391 117.258 0.54039 118.364 1.14039C119.484 1.74039 120.344 2.57372 120.944 3.64039C121.544 4.70706 121.844 5.92039 121.844 7.28039C121.844 8.62706 121.544 9.84039 120.944 10.9204C120.344 12.0004 119.484 12.8537 118.364 13.4804C117.258 14.0937 115.964 14.4004 114.484 14.4004H108.584V0.240391H114.484ZM114.084 10.4404C115.084 10.4404 115.878 10.1671 116.464 9.62039C117.051 9.07372 117.344 8.29372 117.344 7.28039C117.344 6.26706 117.051 5.48706 116.464 4.94039C115.878 4.39372 115.084 4.12039 114.084 4.12039H113.024V10.4404H114.084ZM127.288 0.240391V14.4004H122.848V0.240391H127.288ZM135.593 14.5404C134.26 14.5404 133.033 14.2271 131.913 13.6004C130.806 12.9737 129.926 12.1071 129.273 11.0004C128.62 9.89372 128.293 8.64706 128.293 7.26039C128.293 5.87372 128.62 4.62706 129.273 3.52039C129.926 2.41372 130.806 1.55372 131.913 0.94039C133.033 0.313723 134.26 0.000390053 135.593 0.000390053C136.926 0.000390053 138.146 0.313723 139.253 0.94039C140.36 1.55372 141.233 2.41372 141.873 3.52039C142.526 4.62706 142.853 5.87372 142.853 7.26039C142.853 8.64706 142.526 9.89372 141.873 11.0004C141.233 12.1071 140.353 12.9737 139.233 13.6004C138.126 14.2271 136.913 14.5404 135.593 14.5404ZM135.593 10.4004C136.473 10.4004 137.153 10.1204 137.633 9.56039C138.113 8.98706 138.353 8.22039 138.353 7.26039C138.353 6.28706 138.113 5.52039 137.633 4.96039C137.153 4.38706 136.473 4.10039 135.593 4.10039C134.7 4.10039 134.013 4.38706 133.533 4.96039C133.053 5.52039 132.813 6.28706 132.813 7.26039C132.813 8.22039 133.053 8.98706 133.533 9.56039C134.013 10.1204 134.7 10.4004 135.593 10.4004Z" fill="#FF4400"/>
</svg>
