<svg width="23" height="15" viewBox="0 0 23 15" fill="none" xmlns="http://www.w3.org/2000/svg">
<path d="M4.92 10.8604H10.6V14.4004H1.49012e-08V11.0604L5.6 3.76039H1.49012e-08V0.240391H10.6V3.58039L4.92 10.8604ZM17.5377 14.5404C15.8443 14.5404 14.4443 14.1471 13.3377 13.3604C12.2443 12.5604 11.651 11.3937 11.5577 9.86039H16.2777C16.3443 10.6737 16.7043 11.0804 17.3577 11.0804C17.5977 11.0804 17.7977 11.0271 17.9577 10.9204C18.131 10.8004 18.2177 10.6204 18.2177 10.3804C18.2177 10.0471 18.0377 9.78039 17.6777 9.58039C17.3177 9.36706 16.7577 9.12706 15.9977 8.86039C15.091 8.54039 14.3377 8.22706 13.7377 7.92039C13.151 7.61372 12.6443 7.16706 12.2177 6.58039C11.791 5.99372 11.5843 5.24039 11.5977 4.32039C11.5977 3.40039 11.831 2.62039 12.2977 1.98039C12.7777 1.32706 13.4243 0.833723 14.2377 0.50039C15.0643 0.167057 15.991 0.000390053 17.0177 0.000390053C18.751 0.000390053 20.1243 0.40039 21.1377 1.20039C22.1643 2.00039 22.7043 3.12706 22.7577 4.58039H17.9777C17.9643 4.18039 17.8643 3.89372 17.6777 3.72039C17.491 3.54706 17.2643 3.46039 16.9977 3.46039C16.811 3.46039 16.6577 3.52706 16.5377 3.66039C16.4177 3.78039 16.3577 3.95372 16.3577 4.18039C16.3577 4.50039 16.531 4.76706 16.8777 4.98039C17.2377 5.18039 17.8043 5.42706 18.5777 5.72039C19.471 6.05372 20.2043 6.37372 20.7777 6.68039C21.3643 6.98706 21.871 7.41372 22.2977 7.96039C22.7243 8.50706 22.9377 9.19372 22.9377 10.0204C22.9377 10.8871 22.7243 11.6671 22.2977 12.3604C21.871 13.0404 21.251 13.5737 20.4377 13.9604C19.6243 14.3471 18.6577 14.5404 17.5377 14.5404Z" fill="#FF4400"/>
</svg>
